<?xml version="1.0" encoding="UTF-8" standalone="no"?>
<!-- Created with Inkscape (http://www.inkscape.org/) -->

<svg
   xmlns:dc="http://purl.org/dc/elements/1.1/"
   xmlns:cc="http://creativecommons.org/ns#"
   xmlns:rdf="http://www.w3.org/1999/02/22-rdf-syntax-ns#"
   xmlns:svg="http://www.w3.org/2000/svg"
   xmlns="http://www.w3.org/2000/svg"
   xmlns:sodipodi="http://sodipodi.sourceforge.net/DTD/sodipodi-0.dtd"
   xmlns:inkscape="http://www.inkscape.org/namespaces/inkscape"
   id="svg2"
   version="1.1"
   inkscape:version="0.91 r13725"
   xml:space="preserve"
   width="1138.7133"
   height="576.55103"
   viewBox="0 0 1138.7132 576.55103"
   sodipodi:docname="1.svg"><metadata
     id="metadata8"><rdf:RDF><cc:Work
         rdf:about=""><dc:format>image/svg+xml</dc:format><dc:type
           rdf:resource="http://purl.org/dc/dcmitype/StillImage" /><dc:title /></cc:Work></rdf:RDF></metadata><defs
     id="defs6" /><sodipodi:namedview
     pagecolor="#ffffff"
     bordercolor="#666666"
     borderopacity="1"
     objecttolerance="10"
     gridtolerance="10"
     guidetolerance="10"
     inkscape:pageopacity="0"
     inkscape:pageshadow="2"
     inkscape:window-width="1881"
     inkscape:window-height="1056"
     id="namedview4"
     showgrid="false"
     fit-margin-top="0"
     fit-margin-left="0"
     fit-margin-right="0"
     fit-margin-bottom="0"
     inkscape:zoom="1.0065677"
     inkscape:cx="636.46149"
     inkscape:cy="247.20107"
     inkscape:window-x="1399"
     inkscape:window-y="69"
     inkscape:window-maximized="1"
     inkscape:current-layer="g4294"
     showguides="true"
     inkscape:guide-bbox="true"><sodipodi:guide
       position="671.58917,442.09645"
       orientation="0,1"
       id="guide4203" /></sodipodi:namedview><g
     id="g10"
     inkscape:groupmode="layer"
     inkscape:label="3"
     transform="matrix(1.25,0,0,-1.25,-22.494768,620.82983)"><g
       id="g12"><g
         id="g4294"
         transform="matrix(1.0730206,0,0,1.0730206,-42.172598,37.075443)"><path
           inkscape:connector-curvature="0"
           id="path14"
           style="fill:#ffcc00;fill-opacity:1;fill-rule:nonzero;stroke:#000000;stroke-width:2.47498107;stroke-linecap:round;stroke-linejoin:miter;stroke-miterlimit:1;stroke-dasharray:none;stroke-opacity:1"
           d="m 662.867,252.262 c 0,-8.489 -6.887,-15.371 -15.375,-15.371 -8.492,0 -15.375,6.882 -15.375,15.371 0,8.492 6.883,15.375 15.375,15.375 8.488,0 15.375,-6.883 15.375,-15.375 z" /><path
           inkscape:connector-curvature="0"
           id="path16"
           style="fill:#2d97c3;fill-opacity:1;fill-rule:nonzero;stroke:#000000;stroke-width:2.4748261;stroke-linecap:round;stroke-linejoin:miter;stroke-miterlimit:1;stroke-dasharray:none;stroke-opacity:1"
           d="m 227.066,398.527 c -30.433,-0.015 -58.07,-17.152 -74.246,-44.254 -6.664,-15.043 -3.781,-25.246 7.856,-23.621 33.535,-2.804 55.672,-43.933 24.144,-64.961 -8.082,-5.386 -28.765,12.661 -25.382,-13.898 5.492,-26.617 26.617,-1.852 36.23,-1.191 13.527,0.925 19.711,-17.18 13.906,-32.946 -1.64,-13.254 2.512,-16.508 17.492,-16.625 49.184,0 89.059,44.211 89.059,98.75 0,54.535 -39.875,98.746 -89.059,98.746 z" /><path
           inkscape:connector-curvature="0"
           id="path18"
           style="fill:#e54343;fill-opacity:1;fill-rule:nonzero;stroke:#000000;stroke-width:2.4748261;stroke-linecap:round;stroke-linejoin:miter;stroke-miterlimit:1;stroke-dasharray:none;stroke-opacity:1"
           d="m 159.109,251.387 c 5.493,-26.614 26.614,-1.848 36.231,-1.188 22.555,1.547 24.699,-49.828 -15.106,-55.035 -33.367,-4.363 -55.66,17.07 -63,51.859 -7.343,34.786 -3.234,74.809 29.586,82.254 40.418,9.172 73.285,-40.234 37.668,-63.988 -8.078,-5.387 -28.761,12.66 -25.379,-13.902 z" /><path
           inkscape:connector-curvature="0"
           id="path20"
           style="fill:#cea463;fill-opacity:1;fill-rule:nonzero;stroke:#000000;stroke-width:2.47498107;stroke-linecap:round;stroke-linejoin:miter;stroke-miterlimit:1;stroke-dasharray:none;stroke-opacity:1"
           d="m 108.117,231.137 c -8.91,-31.723 18.727,-67.231 61.727,-79.313 43,-12.078 85.082,3.844 93.996,35.567 4.375,21.437 0.82,20.867 -15.563,16.168 -1.797,-0.508 -6.363,1.082 -8.304,5.957 -2.239,5.617 7.433,24.769 -6.024,21.679 -12.469,-2.867 -0.183,-13.386 0.035,-21.769 -0.507,-4.938 -3.906,-8.696 -7.746,-8.918 -7.465,0.058 -12.238,0.898 -14.949,3.363 -4.133,4.274 -4.453,4.41 -9.098,1.121 -4.968,-4.816 -11.863,-8.406 -20.941,-9.594 -27.727,-3.625 -47.805,10.559 -58.012,35.414 -4.324,12.399 -11.164,12.215 -15.121,0.325 z" /><text
           id="text22"
           style="font-variant:normal;font-weight:normal;font-size:35.00760651px;font-family:'Bebas Neue';-inkscape-font-specification:BebasNeue;writing-mode:lr-tb;fill:#ffffff;fill-opacity:1;fill-rule:nonzero;stroke:none"
           transform="matrix(1,0,0,-1,228.19119,282.39072)"><tspan
             id="tspan24"
             sodipodi:role="line"
             y="0"
             x="0 12.882799 26.745811 40.993908">E6AP</tspan><tspan
             id="tspan26"
             sodipodi:role="line"
             y="-0.33513168"
             x="-85.990799 -73.107994">E6</tspan><tspan
             id="tspan28"
             sodipodi:role="line"
             y="112.65108"
             x="-31.321901 -17.458889">53</tspan></text>
<text
           id="text30"
           style="font-variant:normal;font-weight:normal;font-size:34.63272858px;font-family:'Bebas Neue';-inkscape-font-specification:BebasNeue;writing-mode:lr-tb;fill:#ffffff;fill-opacity:1;fill-rule:nonzero;stroke:none"
           transform="matrix(1,0,0,-1,182.44313,159.40896)"><tspan
             id="tspan32"
             y="0"
             x="0">p</tspan></text>
<text
           id="text34"
           style="font-variant:normal;font-weight:bold;font-size:21.76303482px;font-family:'Trebuchet MS';-inkscape-font-specification:TrebuchetMS-Bold;writing-mode:lr-tb;fill:#1a1a1a;fill-opacity:1;fill-rule:nonzero;stroke:none"
           transform="matrix(1,0,0,-1,142.64295,63.554541)"><tspan
             id="tspan36"
             sodipodi:role="line"
             y="0"
             x="0 12.687849 24.396362 42.503208 54.559929 60.348896 72.253273 79.630943 91.339455 97.302528 109.29396 121.19834">Complejo de </tspan><tspan
             id="tspan38"
             sodipodi:role="line"
             y="21.763035"
             x="-33.865044 -21.851851 -9.9474697 0.34644574 8.3987684 19.367338 31.380533 42.392628 52.904175 58.801956 70.532234 82.763062 88.726128 100.73933 112.62194 118.56326 130.64174 142.76375">degradación de p53</tspan></text>
<path
           inkscape:connector-curvature="0"
           id="path44"
           style="fill:#00ccff;fill-opacity:1;fill-rule:nonzero;stroke:#000000;stroke-width:2.47498107;stroke-linecap:round;stroke-linejoin:miter;stroke-miterlimit:1;stroke-dasharray:none;stroke-opacity:1"
           d="m 286.539,205.754 c 0,-8.492 -6.883,-15.375 -15.375,-15.375 -8.492,0 -15.375,6.883 -15.375,15.375 0,8.492 6.883,15.375 15.375,15.375 8.492,0 15.375,-6.883 15.375,-15.375 z" /><text
           id="text46"
           style="font-variant:normal;font-weight:normal;font-size:22.7127285px;font-family:'Bebas Neue';-inkscape-font-specification:BebasNeue;writing-mode:lr-tb;fill:#1a1a1a;fill-opacity:1;fill-rule:nonzero;stroke:none"
           transform="matrix(1,0,0,-1,266.64485,197.67529)"><tspan
             id="tspan48"
             y="0"
             x="0">u</tspan></text>
<text
           id="text50"
           style="font-variant:normal;font-weight:normal;font-size:17.59165764px;font-family:'Trebuchet MS';-inkscape-font-specification:TrebuchetMS;writing-mode:lr-tb;fill:#1a1a1a;fill-opacity:1;fill-rule:nonzero;stroke:none"
           transform="scale(1,-1)"
           x="54.785416"
           y="-318.30548"><tspan
             id="tspan52"
             sodipodi:role="line"
             y="-318.30548"
             x="54.785416 63.282185 69.650368 78.604523 85.09584 94.190727 98.729378 107.87704">Proteína</tspan><tspan
             id="tspan54"
             sodipodi:role="line"
             y="-300.71384"
             x="68.770096 78.339958 82.896194 89.246788 97.989838">Viral</tspan></text>
<path
           inkscape:connector-curvature="0"
           id="path56"
           style="fill:#e54343;fill-opacity:1;fill-rule:nonzero;stroke:#000000;stroke-width:2.4748261;stroke-linecap:round;stroke-linejoin:miter;stroke-miterlimit:1;stroke-dasharray:none;stroke-opacity:1"
           d="m 636.16,252.32 c 0.129,-27.175 25.727,-7.066 35.281,-8.316 22.418,-2.934 14.383,-53.719 -25.664,-50.969 -33.574,2.305 -51.199,27.719 -51.531,63.27 -0.332,35.55 11.598,73.976 45.238,74.8 41.434,1.012 63.907,-53.91 24.301,-70.164 -8.984,-3.687 -25.699,18.086 -27.625,-8.621 z" /><path
           inkscape:connector-curvature="0"
           id="path58"
           style="fill:#2d97c3;fill-opacity:1;fill-rule:nonzero;stroke:#000000;stroke-width:2.4748261;stroke-linecap:round;stroke-linejoin:miter;stroke-miterlimit:1;stroke-dasharray:none;stroke-opacity:1"
           d="m 813.87988,416.63616 c -30.433,0.176 -58.176,-16.789 -74.519,-43.793 -6.758,-15 -3.942,-25.219 7.707,-23.668 33.515,-3.011 55.398,-44.281 23.738,-65.109 -8.113,-5.34 -28.684,12.84 -25.469,-13.742 5.324,-26.649 26.602,-2.016 36.223,-1.418 13.531,0.844 19.601,-17.301 13.699,-33.032 -1.723,-13.238 2.406,-16.519 17.387,-16.73 49.183,-0.309 89.336,43.652 89.675,98.188 0.34,54.535 -39.257,98.996 -88.441,99.304 z" /><path
           inkscape:connector-curvature="0"
           id="path60"
           style="fill:#cea463;fill-opacity:1;fill-rule:nonzero;stroke:#000000;stroke-width:2.47498107;stroke-linecap:round;stroke-linejoin:miter;stroke-miterlimit:1;stroke-dasharray:none;stroke-opacity:1"
           d="m 640.09456,163.76678 c -4.87745,-32.58551 26.97692,-64.363215 71.14778,-70.979758 44.1754,-6.614434 83.938,14.440518 88.81627,47.029948 1.66697,21.81605 -1.7911,20.8084 -17.45646,14.09716 -1.7179,-0.72742 -6.44834,0.27752 -8.98567,4.87139 -2.92332,5.29859 4.28555,25.50848 -8.68391,20.75648 -12.01326,-4.39958 1.4927,-13.30056 2.75545,-21.59106 0.11154,-4.96569 -2.79065,-9.11649 -6.57132,-9.81703 -7.41334,-0.87324 -12.25408,-0.63912 -15.25178,1.46926 -4.63189,3.72303 -4.97159,3.81811 -9.16994,-0.0238 -4.32734,-5.3998 -10.71631,-9.8215 -19.57476,-12.13063 -27.05708,-7.06504 -48.74802,4.50287 -61.98389,27.88737 -5.83762,11.76032 -12.60206,10.72684 -15.04177,-1.56933 z" /><text
           id="text62"
           style="font-variant:normal;font-weight:normal;font-size:35.00760651px;font-family:'Bebas Neue';-inkscape-font-specification:BebasNeue;writing-mode:lr-tb;fill:#ffffff;fill-opacity:1;fill-rule:nonzero;stroke:none"
           transform="matrix(1,0,0,-1,626.23298,283.3814)"><tspan
             id="tspan64"
             sodipodi:role="line"
             y="0"
             x="0 12.882799">E6</tspan><tspan
             id="tspan66"
             sodipodi:role="line"
             y="5.0409203"
             x="187.80429 200.68709 214.55011 228.7982">E6AP</tspan><tspan
             id="tspan68"
             sodipodi:role="line"
             y="170.39795"
             x="118.29998 132.16299">53</tspan></text>
<text
           id="text70"
           style="font-variant:normal;font-weight:normal;font-size:34.63272858px;font-family:'Bebas Neue';-inkscape-font-specification:BebasNeue;writing-mode:lr-tb;fill:#ffffff;fill-opacity:1;fill-rule:nonzero;stroke:none"
           transform="matrix(1,0,0,-1,730.10682,102.65273)"><tspan
             id="tspan72"
             y="0"
             x="0">p</tspan></text>
<text
           id="text74"
           style="font-variant:normal;font-weight:normal;font-size:17.59165764px;font-family:'Trebuchet MS';-inkscape-font-specification:TrebuchetMS;writing-mode:lr-tb;fill:#1a1a1a;fill-opacity:1;fill-rule:nonzero;stroke:none"
           transform="matrix(1,0,0,-1,811.94434,192.76748)"><tspan
             id="tspan76"
             sodipodi:role="line"
             y="0"
             x="0 9.3235788 18.066633 26.827278 31.647392 40.777462 49.74921 54.551731 63.664211 70.261086">p53 no es </tspan><tspan
             id="tspan78"
             sodipodi:role="line"
             y="17.591658"
             x="0 9.3235788 18.418467 26.756912 33.089909 41.850555 51.174133 59.93478 69.258354">degradada</tspan></text>
<text
           id="text80"
           style="font-variant:normal;font-weight:bold;font-size:17.59165764px;font-family:'Trebuchet MS';-inkscape-font-specification:TrebuchetMS-Bold;writing-mode:lr-tb;fill:#e54343;fill-opacity:1;fill-rule:nonzero;stroke:none"
           transform="matrix(1,0,0,-1,808.83066,95.459912)"><tspan
             id="tspan82"
             sodipodi:role="line"
             y="0"
             x="0 10.660544 20.494282 32.386242 42.237572 51.455601 63.347561 71.879517 76.312614">APOPTOSIS</tspan></text>
<path
           inkscape:connector-curvature="0"
           id="path84"
           style="fill:#000000;fill-opacity:1;fill-rule:nonzero;stroke:none"
           d="m 848.609,167.996 c -0.043,-0.043 -0.078,-16.148 -0.078,-24.055 0,-7.906 -0.058,-14.375 -0.136,-14.371 -0.075,0 -1.934,1.524 -4.133,3.379 -2.2,1.856 -4.074,3.348 -4.172,3.317 -0.094,-0.032 -0.938,-0.836 -1.879,-1.786 l -1.707,-1.726 0.496,-0.473 c 3.996,-3.793 14.281,-13.297 14.395,-13.297 0.082,0 3.39,3.243 7.351,7.207 l 7.203,7.204 -3.648,3.64 -3.918,-3.719 c -2.16,-2.043 -3.953,-3.687 -3.988,-3.656 -0.133,0.129 -0.161,2.223 -0.184,15.317 l -0.023,23.093 -2.754,0 c -1.512,0 -2.786,-0.031 -2.825,-0.074 z" /><path
           inkscape:connector-curvature="0"
           id="path86"
           style="fill:#8d8d8d;fill-opacity:1;fill-rule:nonzero;stroke:none"
           d="m 738.5926,271.63231 c -0.0471,0.0253 -32.86858,-8.72101 -39.60512,-10.52258 -6.73963,-1.80217 -12.26787,-3.22524 -12.27867,-3.1613 -0.0156,0.0656 0.85559,1.99993 1.93664,4.29713 1.07954,2.29336 1.92053,4.2357 1.87555,4.30815 -0.0498,0.0741 -0.92469,0.61007 -1.94726,1.19664 l -1.86293,1.06257 -0.28956,-0.53295 c -2.32335,-4.26975 -8.0752,-15.1981 -8.05169,-15.29597 0.0222,-0.0695 3.53568,-2.15272 7.81749,-4.62287 l 7.77964,-4.49589 1.1356,1.96633 1.13625,1.97129 -4.06202,2.49284 c -2.23204,1.37105 -4.04247,2.5266 -4.02254,2.56333 0.0782,0.14306 1.85318,0.6441 13.00893,3.64771 l 38.76462,10.38844 -0.62729,2.34415 c -0.34368,1.28946 -0.66363,2.36706 -0.70764,2.39298 z" /><text
           id="text88"
           style="font-variant:normal;font-weight:bold;font-size:36.77332306px;font-family:'DejaVu Sans';-inkscape-font-specification:DejaVuSans-Bold;writing-mode:lr-tb;fill:#e54343;fill-opacity:1;fill-rule:nonzero;stroke:none"
           transform="scale(1,-1)"
           x="700.56635"
           y="-250.03412"><tspan
             id="tspan90"
             y="-250.03412"
             x="700.56635">X</tspan></text>
<path
           inkscape:connector-curvature="0"
           id="path92"
           style="fill:#8d8d8d;fill-opacity:1;fill-rule:nonzero;stroke:none"
           d="m 779.738,246.14104 c -0.043,-0.027 -7.687,-33.125 -9.254,-39.922 -1.562,-6.796 -2.894,-12.347 -2.957,-12.328 -0.066,0.016 -1.363,1.692 -2.886,3.723 -1.524,2.027 -2.844,3.684 -2.93,3.676 -0.086,-0.008 -0.973,-0.531 -1.969,-1.16 l -1.808,-1.149 0.332,-0.504 c 2.683,-4.054 9.644,-14.254 9.742,-14.277 0.074,-0.016 3.558,2.117 7.746,4.738 l 7.617,4.77 -2.414,3.851 -4.105,-2.422 c -2.258,-1.328 -4.125,-2.39 -4.149,-2.355 -0.09,0.141 0.301,1.941 2.867,13.203 l 8.981,39.117 -2.367,0.543 c -1.301,0.301 -2.399,0.524 -2.446,0.496 z" /><path
           inkscape:connector-curvature="0"
           id="path94"
           style="fill:#8d8d8d;fill-opacity:1;fill-rule:nonzero;stroke:none"
           d="m 768.73,197.80904 c -0.027,0.047 7.52,33.164 9.079,39.965 1.554,6.797 2.777,12.371 2.711,12.383 -0.067,0.012 -1.965,-0.926 -4.223,-2.09 -2.254,-1.164 -4.16,-2.078 -4.238,-2.031 -0.075,0.047 -0.645,0.902 -1.266,1.902 l -1.129,1.821 0.524,0.308 c 4.179,2.477 14.894,8.625 14.992,8.602 0.07,-0.016 2.277,-3.453 4.906,-7.641 l 4.773,-7.613 -3.851,-2.414 -2.641,3.968 c -1.453,2.184 -2.668,3.95 -2.707,3.93 -0.14,-0.086 -0.574,-1.879 -3.172,-13.133 l -8.976,-39.117 -2.367,0.539 c -1.301,0.301 -2.387,0.578 -2.415,0.621 z" /><text
           id="text96"
           style="font-variant:normal;font-weight:bold;font-size:36.77332306px;font-family:'DejaVu Sans';-inkscape-font-specification:DejaVuSans-Bold;writing-mode:lr-tb;fill:#e54343;fill-opacity:1;fill-rule:nonzero;stroke:none"
           transform="scale(1,-1)"
           x="760.14484"
           y="-205.92993"><tspan
             id="tspan98"
             y="-205.92993"
             x="760.14484">X</tspan></text>
<text
           id="text100"
           style="font-variant:normal;font-weight:normal;font-size:17.59165764px;font-family:'Trebuchet MS';-inkscape-font-specification:TrebuchetMS;writing-mode:lr-tb;fill:#1a1a1a;fill-opacity:1;fill-rule:nonzero;stroke:none"
           transform="matrix(1,0,0,-1,534.64859,309.36123)"><tspan
             id="tspan102"
             sodipodi:role="line"
             x="0"
             y="0" /><tspan
             id="tspan104"
             sodipodi:role="line"
             x="0"
             y="21.989573" /><tspan
             id="tspan106"
             sodipodi:role="line"
             y="116.59374"
             x="-218.02904 -208.70546 -199.9624 -191.20177">p53 </tspan><tspan
             id="tspan108"
             sodipodi:role="line"
             y="134.18539"
             x="-251.15289 -242.00523 -232.69925 -228.1606 -218.83702 -209.68936 -205.15071 -198.67699 -194.12074 -184.99068 -176.23003 -166.90645">ubiquitinada</tspan></text>
<text
           id="text110"
           style="font-variant:normal;font-weight:bold;font-size:17.59165764px;font-family:'Trebuchet MS';-inkscape-font-specification:TrebuchetMS-Bold;writing-mode:lr-tb;fill:#e54343;fill-opacity:1;fill-rule:nonzero;stroke:none"
           transform="matrix(1,0,0,-1,272.83059,95.459912)"><tspan
             id="tspan112"
             sodipodi:role="line"
             y="0"
             x="0 10.801278 20.318365 31.647392 41.903328 52.563873 63.36515 74.025696 84.281631 88.714729 100.60669">DEGRADACIÓN</tspan></text>
<path
           inkscape:connector-curvature="0"
           id="path114"
           style="fill:#000000;fill-opacity:1;fill-rule:nonzero;stroke:none"
           d="m 327.008,167.996 c -0.039,-0.043 -0.074,-16.148 -0.074,-24.055 0,-7.906 -0.063,-14.375 -0.137,-14.371 -0.078,0 -1.938,1.524 -4.137,3.379 -2.199,1.856 -4.074,3.348 -4.168,3.317 -0.094,-0.032 -0.941,-0.836 -1.883,-1.786 l -1.707,-1.726 0.5,-0.473 c 3.993,-3.793 14.278,-13.297 14.391,-13.297 0.082,0 3.391,3.243 7.352,7.207 l 7.203,7.204 -1.825,1.82 -1.82,1.82 -3.922,-3.719 c -2.156,-2.043 -3.949,-3.687 -3.984,-3.656 -0.137,0.129 -0.16,2.223 -0.188,15.317 l -0.023,23.093 -2.75,0 c -1.516,0 -2.785,-0.031 -2.828,-0.074 z" /><text
           id="text116"
           style="font-variant:normal;font-weight:bold;font-size:21.76303482px;font-family:'Trebuchet MS';-inkscape-font-specification:TrebuchetMS-Bold;writing-mode:lr-tb;fill:#1a1a1a;fill-opacity:1;fill-rule:nonzero;stroke:none"
           transform="matrix(1,0,0,-1,615.28499,63.554541)"><tspan
             id="tspan118"
             sodipodi:role="line"
             y="0"
             x="0 12.383167 18.172134 29.880648 41.959133 54.233482 66.094337 77.824615 83.765923 95.80088 107.68349 113.64657 119.43554 130.42587 136.38895 142.26495 154.51755 162.56987 174.45248 182.48305 193.47339 203.98492 214.53999 220.41602 232.12453">Bloqueo de la interacción</tspan><tspan
             id="tspan120"
             sodipodi:role="line"
             y="21.763035"
             x="-1.4803391 10.2717 22.393711 28.356781 35.756214 41.697521 53.471325 65.593338 78.759972 90.577301 96.562134 107.07368 118.80396 131.03477 136.99785 149.25044 161.50304 167.46609 174.86554 185.85587 194.58284 212.68968 223.68002 234.21333">E6 - E6AP con un fármaco</tspan></text>
<text
           id="text122"
           style="font-variant:normal;font-weight:normal;font-size:17.59165764px;font-family:'Trebuchet MS';-inkscape-font-specification:TrebuchetMS;writing-mode:lr-tb;fill:#1a1a1a;fill-opacity:1;fill-rule:nonzero;stroke:none"
           transform="scale(1,-1)"
           x="519.85553"
           y="-318.32697"><tspan
             id="tspan124"
             sodipodi:role="line"
             y="-318.32697"
             x="519.85553 528.59857 537.35919 543.6922 557.83588 566.59656 574.82947">Fármaco</tspan><tspan
             id="tspan126"
             sodipodi:role="line"
             y="-300.73529"
             x="513.24078 522.38843 531.51849 536.05713 545.38074 554.3349 559.13739 567.91565 572.71814 581.65472">unido a E6</tspan></text>
<path
           inkscape:connector-curvature="0"
           id="path128"
           style="fill:#1a1a1a;fill-opacity:1;fill-rule:nonzero;stroke:none"
           d="m 560.35205,286.8428 c 0.015,-0.055 29.703,-16.016 36.668,-19.754 6.968,-3.738 12.64,-6.851 12.601,-6.914 -0.039,-0.066 -2.258,-0.988 -4.93,-2.047 -2.675,-1.062 -4.879,-2.012 -4.894,-2.109 -0.016,-0.098 0.289,-1.223 0.683,-2.5 l 0.711,-2.32 0.653,0.214 c 5.234,1.727 18.468,6.301 18.523,6.399 0.039,0.074 -1.254,4.519 -2.875,9.887 l -2.945,9.75 -4.93,-1.493 1.422,-5.211 c 0.781,-2.867 1.383,-5.226 1.336,-5.242 -0.176,-0.058 -2.031,0.91 -13.582,7.078 l -35.871,19.215 -1.301,-2.426 c -0.715,-1.332 -1.289,-2.468 -1.269,-2.527 z" /></g><g
         id="g4286"
         transform="matrix(1.0730206,0,0,1.0730206,171.7199,31.105734)"><text
           id="text134"
           style="font-variant:normal;font-weight:bold;font-size:12px;font-family:'Trebuchet MS';-inkscape-font-specification:TrebuchetMS-Bold;writing-mode:lr-tb;fill:#404040;fill-opacity:1;fill-rule:nonzero;stroke:none"
           transform="matrix(1,0,0,-1,7.25,19.5)"><tspan
             id="tspan136"
             sodipodi:role="line"
             y="0"
             x="0 7.704 14.484 21.264 26.424 33.396 39.779999 43.548 47.952 51.563999 58.452 63.203999 66.779999 73.164001 76.692001 81.096001 84.708 89.112 96.132004 103.152 110.22 117.24 121.644">Doorbar, et al. (2012).</tspan></text>
<text
           id="text138"
           style="font-style:italic;font-variant:normal;font-weight:bold;font-size:12px;font-family:'Trebuchet MS';-inkscape-font-specification:Trebuchet-BoldItalic;writing-mode:lr-tb;fill:#a6a6a6;fill-opacity:1;fill-rule:nonzero;stroke:none"
           transform="matrix(1,0,0,-1,137.05,19.5)"><tspan
             id="tspan140"
             sodipodi:role="line"
             y="0"
             x="0 8.2200003 14.964 21.540001 25.152 32.231998 36.144001 42.972 46.799999 53.627998 60.048 66.804001 70.379997 77.484001 84.227997 91.344002 94.907997 98.736 102.648 107.568 114.132 118.536 124.44 131.16 137.064 140.892 147.504 151.08 157.908 162.828 166.44 173.18401 179.868 189.828 196.93201 203.67599 207.252 214.42799 221.532 228.70799 232.62 236.448 240.276 247.14 257.10001 264.20401 270.828 274.73999 280.056 286.73999 292.23599 298.84799 304.34399">The biology and life-cycle of human papillomaviruses.</tspan></text>
<text
           id="text142"
           style="font-variant:normal;font-weight:bold;font-size:12px;font-family:'Trebuchet MS';-inkscape-font-specification:TrebuchetMS-Bold;writing-mode:lr-tb;fill:#a6a6a6;fill-opacity:1;fill-rule:nonzero;stroke:none"
           transform="matrix(1,0,0,-1,445.798,19.5)"><tspan
             id="tspan144"
             sodipodi:role="line"
             y="0"
             x="0 6.5159998 12.9 19.032 25.164 28.788 35.868 42.756001 47.16 50.771999 57.792 64.848 69.251999 72.863998 79.884003 86.903999 91.307999 98.328003 105.396">Vaccine, 30, 55-70.</tspan></text>
</g><g
         id="g4280"
         transform="matrix(1.0730206,0,0,1.0730206,22.564768,32.811365)"><text
           id="text146"
           style="font-variant:normal;font-weight:bold;font-size:12px;font-family:'Trebuchet MS';-inkscape-font-specification:TrebuchetMS-Bold;writing-mode:lr-tb;fill:#404040;fill-opacity:1;fill-rule:nonzero;stroke:none"
           transform="matrix(1,0,0,-1,7.25,5.099976)"><tspan
             id="tspan148"
             sodipodi:role="line"
             y="0"
             x="0 6.7199998 13.788 20.676001 27.756001 33.768002 38.172001 41.784 48.456001 52.860001 57.264 66.204002 70.608002 74.220001 80.615997 84.192001 91.332001 97.716003 104.28 111.168 114.9 119.304 122.916 130.248 138.24001 145.57201 149.976 153.588 157.992 165.01199 172.032 179.088 186.108 190.51199">Zheng, Z.-M. y Baker, C.C. (2006).</tspan></text>
<text
           id="text150"
           style="font-variant:normal;font-weight:bold;font-size:12px;font-family:'Trebuchet MS';-inkscape-font-specification:TrebuchetMS-Bold;writing-mode:lr-tb;fill:#a6a6a6;fill-opacity:1;fill-rule:nonzero;stroke:none"
           transform="matrix(1,0,0,-1,205.95,5.099976)"><tspan
             id="tspan152"
             sodipodi:role="line"
             y="0"
             x="0 6.4439998 12.828 19.812 23.424 26.952 30.48 37.259998 47.568001 53.952 60.672001 64.248001 69.407997 76.487999 81.648003 85.260002 91.236 98.124001 105.204 111.984 122.292 129.17999 132.79201 137.952 142.70399 147.828 154.908 161.03999 165.79201 172.87199 178.032 184.92 189.32401 192.936 199.82401 206.448 213.43201 218.604 225.492 230.65199 235.776 239.35201 246.168 253.248 257.65201 261.26401 267.64801 274.728 281.68799 285.29999 292.284 299.064 304.224 308.97601 313.34399 318.09601 322.836 329.22 336.29999 341.45999 347.59201 352.75201 356.328 363.34799 368.10001 371.67599 378.45599 385.57199 391.95599 395.48401 399.09601 404.22 411.108 417.12 424.20001 427.728 434.14801 438.89999 442.47601 449.25601 456.37201 460.776 464.388 471.384 476.508 483.28799 490.36801 495.12 499.52399 503.13599 510.276 513.85199 520.66803 525.828 531.96002 535.53601 539.94 544.34399 547.95599 554.97601 561.99597 570.01202 577.03198 584.08801 591.10797 598.164 602.56799 609.58801 616.64398 623.664">Papillomavirus genome structure, expression, and post-transcriptional regulation. Front. Biosci., 11:2286–302.</tspan></text>
</g></g></g></svg>